<svg width="24" height="24" viewBox="0 0 24 24" fill="none" xmlns="http://www.w3.org/2000/svg">
<path fill-rule="evenodd" clip-rule="evenodd" d="M11.5019 5.58744C11.4588 5.74829 11.5338 5.91681 11.6792 5.99804C12.4569 6.4326 13.2346 6.86717 14.0124 7.30173C14.1782 7.39441 14.3475 7.47828 14.5196 7.55334C15.0184 7.77088 15.5589 7.44634 15.6997 6.92073L17.0876 1.74117C17.2048 1.30399 17.6009 1 18.0535 1H19.5732C20.2307 1 20.7093 1.6237 20.5391 2.25883L19.2671 7.00577C19.2079 7.22684 19.4284 7.41336 19.6282 7.30173L21.4355 6.2919C21.9176 6.02251 22.5269 6.19497 22.7963 6.6771L23.5122 7.95847C23.7816 8.4406 23.6092 9.04982 23.127 9.31921L21.3197 10.329C20.5016 10.7862 19.6313 11.1095 18.7393 11.2992C18.346 11.3828 18.0183 11.6661 17.9143 12.0544L17.1415 14.9385C16.9716 15.5726 17.454 16.1966 18.0942 16.0513C18.6241 15.9311 19.141 15.7349 19.6282 15.4627L21.4355 14.4529C21.9176 14.1835 22.5269 14.3559 22.7963 14.8381L23.5122 16.1194C23.7816 16.6016 23.6092 17.2108 23.127 17.4802L21.3197 18.49C19.8969 19.2851 18.316 19.6755 16.7379 19.6614C16.2474 19.657 15.7952 19.9628 15.6682 20.4366L15.0505 22.742C14.9334 23.1791 14.5372 23.4831 14.0846 23.4831H12.565C11.9074 23.4831 11.4288 22.8594 11.599 22.2243L12.4928 18.8887C12.5347 18.7325 12.462 18.5689 12.3208 18.49C11.5431 18.0555 10.7654 17.6209 9.98764 17.1863C9.81897 17.0921 9.64674 17.007 9.47165 16.9309C8.97301 16.7144 8.43343 17.039 8.29273 17.5641L6.90529 22.742C6.78814 23.1791 6.39197 23.4831 5.93936 23.4831H4.41974C3.76221 23.4831 3.28363 22.8594 3.45381 22.2243L4.72605 17.4764C4.78412 17.2597 4.56765 17.0769 4.37178 17.1863L2.56449 18.1962C2.08236 18.4655 1.47313 18.2931 1.20374 17.811L0.487773 16.5296C0.218383 16.0475 0.390841 15.4382 0.872969 15.1688L2.68026 14.159C3.49593 13.7033 4.36353 13.3804 5.25277 13.1906C5.64561 13.1067 5.97282 12.8235 6.07679 12.4355L6.8496 9.5514C7.01966 8.91674 6.53623 8.29252 5.89573 8.43901C5.36927 8.55942 4.85587 8.75487 4.37178 9.02535L2.56449 10.0352C2.08236 10.3046 1.47313 10.1321 1.20374 9.64999L0.487773 8.36861C0.218383 7.88649 0.390841 7.27726 0.872969 7.00787L2.68026 5.99804C4.10088 5.20426 5.67905 4.81379 7.25467 4.82658C7.74484 4.83056 8.19649 4.52486 8.32336 4.05138L8.94241 1.74117C9.05955 1.30399 9.45573 1 9.90833 1H11.428C12.0855 1 12.5641 1.6237 12.3939 2.25883L11.5019 5.58744ZM9.70603 12.2897C9.56168 12.8284 9.88855 13.3761 10.4109 13.5715C10.8443 13.7336 11.2683 13.9294 11.6792 14.159L12.3679 14.5439C12.9368 14.8617 13.6529 14.5592 13.8216 13.9297L14.2863 12.1955C14.4306 11.6571 14.1042 11.1097 13.5823 10.914C13.1513 10.7524 12.7296 10.5574 12.3208 10.329C12.0888 10.1994 11.8568 10.0698 11.6248 9.94011C11.0558 9.62222 10.3397 9.92475 10.1711 10.5542L9.70603 12.2897Z" fill="black"/>
</svg>
