<svg width="257" height="38" viewBox="0 0 257 38" fill="none" xmlns="http://www.w3.org/2000/svg">
<path fillRule="evenodd" clipRule="evenodd" d="M19.2091 7.66136C19.1371 7.93 19.2623 8.21145 19.5051 8.34711C20.804 9.07286 22.1028 9.79862 23.4017 10.5244C23.6787 10.6791 23.9615 10.8192 24.2489 10.9446C25.0819 11.3079 25.9845 10.7659 26.2197 9.88806L28.5376 1.23782C28.7333 0.507692 29.3949 0 30.1508 0H32.6887C33.7868 0 34.5861 1.04163 34.3018 2.10234L32.1775 10.0301C32.0786 10.3993 32.447 10.7108 32.7806 10.5244L35.7989 8.83788C36.6041 8.38797 37.6216 8.67599 38.0715 9.48118L39.2672 11.6212C39.7171 12.4264 39.4291 13.4438 38.6239 13.8937L35.6056 15.5802C34.2393 16.3436 32.7857 16.8837 31.296 17.2004C30.6392 17.34 30.092 17.8132 29.9182 18.4617L28.6276 23.2784C28.3438 24.3374 29.1495 25.3794 30.2186 25.1369C31.1037 24.9361 31.967 24.6084 32.7806 24.1538L35.7989 22.4673C36.6041 22.0174 37.6216 22.3054 38.0715 23.1106L39.2672 25.2506C39.7171 26.0558 39.4291 27.0733 38.6239 27.5232L35.6056 29.2097C33.2293 30.5374 30.589 31.1895 27.9535 31.166C27.1343 31.1586 26.3792 31.6693 26.1671 32.4606L25.1355 36.3107C24.9398 37.0408 24.2782 37.5485 23.5223 37.5485H20.9844C19.8863 37.5485 19.087 36.5069 19.3713 35.4462L20.864 29.8755C20.9339 29.6147 20.8125 29.3414 20.5767 29.2097C19.2779 28.4839 17.979 27.7581 16.6801 27.0324C16.3984 26.875 16.1108 26.7328 15.8184 26.6059C14.9856 26.2443 14.0845 26.7863 13.8495 27.6632L11.5324 36.3107C11.3367 37.0408 10.6751 37.5485 9.91919 37.5485H7.3813C6.28317 37.5485 5.48391 36.5069 5.76813 35.4462L7.89286 27.5168C7.98985 27.1549 7.62832 26.8496 7.3012 27.0324L4.28289 28.7189C3.4777 29.1688 2.46025 28.8808 2.01034 28.0756L0.81462 25.9356C0.364718 25.1304 0.652735 24.1129 1.45792 23.663L4.47623 21.9766C5.83846 21.2154 7.28743 20.6763 8.77252 20.3592C9.4286 20.2191 9.97506 19.7461 10.1487 19.0981L11.4394 14.2815C11.7234 13.2216 10.916 12.1791 9.84632 12.4237C8.9671 12.6248 8.10967 12.9512 7.3012 13.4029L4.28289 15.0894C3.4777 15.5393 2.46025 15.2513 2.01034 14.4461L0.81462 12.3061C0.364718 11.501 0.652735 10.4835 1.45792 10.0336L4.47623 8.34711C6.84878 7.02144 9.48444 6.36931 12.1159 6.39068C12.9345 6.39733 13.6888 5.88678 13.9006 5.09604L14.9345 1.23781C15.1301 0.50769 15.7918 0 16.5477 0H19.0856C20.1837 0 20.9829 1.04163 20.6987 2.10234L19.2091 7.66136ZM16.2098 18.8547C15.9687 19.7544 16.5146 20.669 17.387 20.9954C18.1107 21.2661 18.8189 21.5932 19.5051 21.9766L20.6554 22.6193C21.6055 23.1502 22.8014 22.6449 23.0831 21.5936L23.8592 18.6973C24.1002 17.7981 23.5551 16.884 22.6835 16.5571C21.9637 16.2872 21.2593 15.9616 20.5767 15.5802C20.1892 15.3637 19.8017 15.1472 19.4142 14.9307C18.4641 14.3998 17.2682 14.905 16.9864 15.9563L16.2098 18.8547Z" fill="black"/>
<path d="M50.4021 32.5722C49.2851 32.5722 48.4327 31.5736 48.608 30.4705L52.4595 6.2427C52.5997 5.36062 53.3603 4.71134 54.2535 4.71134H57.3155C58.4316 4.71134 59.2837 5.70842 59.1098 6.81092L57.579 16.5161C57.5613 16.6285 57.4645 16.7112 57.3508 16.7112C57.1711 16.7112 57.0611 16.5157 57.1605 16.3661C57.8854 15.2755 58.797 14.4441 59.8953 13.8721C61.1066 13.2412 62.4441 12.9258 63.9078 12.9258C66.1791 12.9258 67.8068 13.6198 68.7911 15.0078C69.7753 16.3958 70.0402 18.5282 69.586 21.4052L68.0507 31.0415C67.9102 31.9233 67.1497 32.5722 66.2568 32.5722H63.1965C62.0796 32.5722 61.2273 31.5739 61.4024 30.4708L62.8479 21.3673C63.0246 20.1812 62.9236 19.3358 62.5451 18.8311C62.1665 18.3263 61.5608 18.074 60.728 18.074C59.6429 18.074 58.747 18.4147 58.0404 19.096C57.359 19.7774 56.93 20.6733 56.7533 21.7837L55.2585 31.0451C55.1164 31.9253 54.3567 32.5722 53.4652 32.5722H50.4021Z" fill="black"/>
<path d="M82.6097 32.9886C80.1618 32.9886 78.1429 32.5344 76.553 31.6259C74.9631 30.6921 73.8275 29.4177 73.1461 27.8026C72.4899 26.1622 72.3259 24.2821 72.654 22.1623C72.9568 20.2695 73.5751 18.6418 74.5088 17.279C75.4678 15.891 76.6792 14.8185 78.1429 14.0614C79.6318 13.3043 81.3227 12.9258 83.2154 12.9258C85.1838 12.9258 86.7989 13.3548 88.0608 14.2128C89.3478 15.0456 90.2563 16.2065 90.7863 17.6954C91.3162 19.1591 91.4172 20.85 91.0891 22.7679C90.9805 23.5281 90.3294 24.0928 89.5615 24.0928H79.8463C78.8713 24.0928 78.126 23.2233 78.2751 22.2598C78.3951 21.4848 79.0621 20.9131 79.8463 20.9131H85.9439C86.1159 20.9131 86.1973 21.1252 86.0694 21.2403C85.938 21.3585 85.7268 21.2454 85.7449 21.0695C85.8657 19.8953 85.7165 19.0103 85.2974 18.4147C84.8179 17.708 84.0608 17.3547 83.0261 17.3547C82.269 17.3547 81.6255 17.5314 81.0955 17.8847C80.5656 18.238 80.1365 18.7301 79.8085 19.361C79.4804 19.9667 79.2533 20.6607 79.1271 21.443L78.8621 23.1086C78.6602 24.6733 78.9126 25.8846 79.6192 26.7426C80.3511 27.5754 81.676 27.9918 83.5939 27.9918C84.452 27.9918 85.2721 27.8783 86.0545 27.6512C86.2435 27.598 86.4338 27.5372 86.6256 27.4689C87.6805 27.0928 88.9206 27.5014 89.3257 28.5455L89.723 29.5698C90.0338 30.3709 89.7467 31.2947 88.9733 31.6691C88.2536 32.0175 87.4951 32.2933 86.698 32.4965C85.4109 32.8246 84.0482 32.9886 82.6097 32.9886Z" fill="black"/>
<path d="M93.4361 32.5722C91.8265 32.5722 91.0121 30.6338 92.1387 29.4842L99.2941 22.1828C99.6243 21.8458 100.196 22.0967 100.171 22.5678C100.146 23.0622 99.5032 23.2361 99.2317 22.8222L94.8572 16.1553C94.0646 14.9472 94.9311 13.3422 96.376 13.3422H99.5538C100.192 13.3422 100.783 13.6769 101.111 14.2241L103.794 18.6957C104.03 19.0885 103.747 19.5881 103.289 19.5881C102.776 19.5881 102.508 18.9772 102.856 18.5996L107.159 13.9279C107.503 13.5546 107.988 13.3422 108.495 13.3422H111.604C113.211 13.3422 114.026 15.2765 112.904 16.4272L106.4 23.0943C106.048 23.4546 105.439 23.175 105.483 22.6735C105.527 22.1677 106.184 22.0014 106.464 22.4254L111.294 29.7562C112.09 30.964 111.224 32.5722 109.778 32.5722H106.363C105.734 32.5722 105.15 32.2472 104.819 31.713L101.726 26.7253C101.475 26.32 101.766 25.7963 102.243 25.7963C102.776 25.7963 103.051 26.4325 102.687 26.821L97.8271 31.9988C97.4837 32.3647 97.0043 32.5722 96.5026 32.5722H93.4361Z" fill="black"/>
<path d="M123.992 32.9886C121.216 32.9886 119.247 32.3073 118.086 30.9445C116.951 29.5565 116.572 27.6133 116.951 25.1149L117.762 20.077C117.913 19.1456 117.193 18.3011 116.25 18.3011C115.307 18.3011 114.588 17.4575 114.737 16.5264L115.002 14.8712C115.143 13.9902 115.904 13.3422 116.796 13.3422H117.292C118.186 13.3422 118.946 12.6923 119.086 11.8097L119.37 10.0147C119.487 9.28085 120.038 8.69175 120.762 8.52727L123.944 7.80496C125.199 7.52011 126.344 8.59395 126.14 9.8643L125.919 11.2377C125.742 12.3417 126.595 13.3422 127.713 13.3422H128.145C129.263 13.3422 130.115 14.3424 129.938 15.4462L129.726 16.7721C129.585 17.6531 128.824 18.3011 127.932 18.3011H126.342C125.447 18.3011 124.685 18.9531 124.547 19.8375L123.765 24.8499C123.588 25.9098 123.727 26.6417 124.181 27.0455C124.661 27.424 125.266 27.6133 125.998 27.6133C126.402 27.6133 126.743 27.5881 127.02 27.5376C127.512 27.4146 127.986 27.8228 127.905 28.3233L127.412 31.3956C127.31 32.0308 126.884 32.5828 126.259 32.7374C126.018 32.797 125.78 32.8429 125.544 32.8751C125.014 32.9508 124.496 32.9886 123.992 32.9886Z" fill="black"/>
<path d="M131.953 32.5722C130.835 32.5722 129.983 31.5731 130.159 30.4696L132.646 14.8727C132.786 13.991 133.547 13.3422 134.44 13.3422H137.499C138.616 13.3422 139.469 14.3413 139.293 15.4447L136.806 31.0417C136.665 31.9234 135.905 32.5722 135.012 32.5722H131.953ZM135.277 10.6166C134.162 10.6166 133.31 9.62134 133.483 8.51965L133.861 6.09604C133.999 5.21179 134.761 4.55992 135.656 4.55992H139.044C140.164 4.55992 141.017 5.5628 140.838 6.66785L140.444 9.09145C140.301 9.9707 139.541 10.6166 138.651 10.6166H135.277Z" fill="black"/>
<path d="M142.858 32.5722C141.741 32.5722 140.888 31.573 141.064 30.4696L142.962 18.5661C143.089 17.708 143.19 16.8374 143.265 15.9541C143.3 15.6512 143.332 15.3498 143.36 15.0498C143.452 14.0923 144.243 13.3422 145.205 13.3422H148.242C149.184 13.3422 149.939 14.1229 149.907 15.0645L149.857 16.5128C149.854 16.6023 149.781 16.6734 149.691 16.6734C149.562 16.6734 149.483 16.5326 149.553 16.4239C150.283 15.2878 151.177 14.4372 152.237 13.8721C153.372 13.2412 154.672 12.9258 156.136 12.9258C157.549 12.9258 158.723 13.2664 159.656 13.9478C160.546 14.5563 161.109 15.5013 161.348 16.7826C161.378 16.9441 161.251 17.0898 161.087 17.0898C160.875 17.0898 160.747 16.8584 160.867 16.6842C161.637 15.5651 162.609 14.6782 163.782 14.0235C165.12 13.2917 166.483 12.9258 167.871 12.9258C170.167 12.9258 171.782 13.6198 172.716 15.0078C173.65 16.3705 173.877 18.5282 173.397 21.4809L171.897 31.0374C171.758 31.9211 170.997 32.5722 170.103 32.5722H167.007C165.89 32.5722 165.038 31.5745 165.213 30.4717L166.659 21.3295C166.836 20.1938 166.773 19.3736 166.47 18.8689C166.167 18.339 165.625 18.074 164.842 18.074C163.858 18.074 163.051 18.4273 162.42 19.1339C161.814 19.8405 161.41 20.8121 161.208 22.0487L159.785 31.0397C159.646 31.9223 158.885 32.5722 157.991 32.5722H154.931C153.815 32.5722 152.963 31.5745 153.137 30.4717L154.584 21.3295C154.76 20.1938 154.697 19.3736 154.395 18.8689C154.117 18.339 153.574 18.074 152.767 18.074C151.757 18.074 150.95 18.4273 150.344 19.1339C149.764 19.8405 149.372 20.8121 149.171 22.0487L147.714 31.0459C147.572 31.9257 146.812 32.5722 145.921 32.5722H142.858Z" fill="black"/>
<path d="M183.839 32.9886C182.097 32.9886 180.609 32.5344 179.372 31.6259C178.135 30.7174 177.252 29.4555 176.722 27.8404C176.217 26.2253 176.129 24.3704 176.457 22.2758C176.962 19.1465 178.11 16.8122 179.902 15.2727C181.719 13.7081 183.864 12.9258 186.337 12.9258C187.826 12.9258 189.113 13.2664 190.198 13.9478C191.251 14.5845 191.889 15.4351 192.11 16.4996C192.122 16.557 192.091 16.6144 192.038 16.6382C191.939 16.6821 191.834 16.5906 191.864 16.4868L192.517 14.2255C192.668 13.7023 193.147 13.3422 193.692 13.3422H196.886C198.078 13.3422 198.947 14.4713 198.676 15.6323C198.651 15.7394 198.627 15.8467 198.602 15.9541C198.425 16.8374 198.261 17.708 198.11 18.5661L196.121 31.0417C195.98 31.9234 195.219 32.5722 194.327 32.5722H191.222C190.166 32.5722 189.359 31.6313 189.519 30.588L189.71 29.3507C189.729 29.2223 189.84 29.1275 189.97 29.1275C190.164 29.1275 190.29 29.3293 190.196 29.4986C189.645 30.489 188.863 31.299 187.851 31.9287C186.741 32.6353 185.403 32.9886 183.839 32.9886ZM186.299 27.9918C187.41 27.9918 188.356 27.6133 189.138 26.8562C189.921 26.0739 190.438 24.8752 190.69 23.26C190.993 21.3168 190.842 19.9415 190.236 19.1339C189.656 18.3263 188.772 17.9225 187.586 17.9225C186.476 17.9225 185.53 18.3011 184.747 19.0582C183.99 19.8153 183.473 21.014 183.195 22.6544C182.892 24.5723 183.031 25.9477 183.612 26.7805C184.217 27.5881 185.113 27.9918 186.299 27.9918Z" fill="black"/>
<path d="M209.904 32.9886C207.128 32.9886 205.159 32.3073 203.998 30.9445C202.863 29.5565 202.484 27.6133 202.863 25.1149L203.674 20.077C203.824 19.1456 203.105 18.3011 202.162 18.3011C201.219 18.3011 200.5 17.4575 200.649 16.5264L200.914 14.8712C201.055 13.9902 201.816 13.3422 202.708 13.3422H203.204C204.097 13.3422 204.858 12.6923 204.998 11.8097L205.282 10.0147C205.398 9.28085 205.95 8.69175 206.674 8.52727L209.856 7.80496C211.111 7.52011 212.256 8.59395 212.052 9.8643L211.831 11.2377C211.654 12.3417 212.507 13.3422 213.625 13.3422H214.057C215.175 13.3422 216.027 14.3424 215.85 15.4462L215.638 16.7721C215.496 17.6531 214.736 18.3011 213.844 18.3011H212.254C211.359 18.3011 210.597 18.9531 210.459 19.8375L209.677 24.8499C209.5 25.9098 209.639 26.6417 210.093 27.0455C210.572 27.424 211.178 27.6133 211.91 27.6133C212.314 27.6133 212.654 27.5881 212.932 27.5376C213.424 27.4146 213.898 27.8228 213.817 28.3233L213.324 31.3956C213.222 32.0308 212.795 32.5828 212.171 32.7374C211.93 32.797 211.692 32.8429 211.456 32.8751C210.926 32.9508 210.408 32.9886 209.904 32.9886Z" fill="black"/>
<path d="M225.658 32.9886C223.387 32.9886 221.494 32.5596 219.98 31.7016C218.466 30.8183 217.393 29.5817 216.762 27.9918C216.131 26.3767 215.98 24.4714 216.308 22.2758C216.636 20.2064 217.33 18.4777 218.39 17.0898C219.45 15.7018 220.775 14.6671 222.365 13.9857C223.98 13.2791 225.771 12.9258 227.74 12.9258C230.036 12.9258 231.929 13.3674 233.418 14.2507C234.907 15.1087 235.967 16.3327 236.598 17.9225C237.229 19.5124 237.368 21.4178 237.014 23.6386C236.686 25.708 235.992 27.4366 234.932 28.8246C233.898 30.2126 232.585 31.2599 230.995 31.9666C229.406 32.6479 227.626 32.9886 225.658 32.9886ZM226.036 27.9918C227.096 27.9918 228.005 27.6133 228.762 26.8562C229.519 26.0739 230.036 24.8752 230.314 23.26C230.617 21.3168 230.478 19.9415 229.898 19.1339C229.317 18.3263 228.459 17.9225 227.324 17.9225C226.238 17.9225 225.317 18.3011 224.56 19.0582C223.828 19.8153 223.324 21.014 223.046 22.6544C222.743 24.5723 222.869 25.9477 223.425 26.7805C224.005 27.5881 224.876 27.9918 226.036 27.9918Z" fill="black"/>
<path d="M241.044 32.5722C239.926 32.5722 239.074 31.5725 239.25 30.4689L241.148 18.6039C241.274 17.7207 241.375 16.8374 241.45 15.9541C241.485 15.6512 241.517 15.3498 241.545 15.0498C241.637 14.0923 242.428 13.3422 243.39 13.3422H246.275C247.301 13.3422 248.123 14.1914 248.09 15.2169L247.976 18.7809C247.968 19.0409 247.755 19.2475 247.494 19.2475C247.165 19.2475 246.933 18.9249 247.049 18.617C247.486 17.4588 248.004 16.4828 248.605 15.6891C249.337 14.7554 250.169 14.0614 251.103 13.6071C252.037 13.1529 253.059 12.9258 254.169 12.9258C254.573 12.9258 254.939 12.951 255.267 13.0015C255.774 13.0404 256.109 13.5173 256.026 14.0187L255.427 17.6378C255.308 18.3553 254.544 18.738 253.829 18.6039C253.45 18.5282 252.958 18.4904 252.352 18.4904C251.494 18.4904 250.699 18.6796 249.968 19.0582C249.261 19.4115 248.655 19.9667 248.151 20.7238C247.646 21.4556 247.305 22.4272 247.128 23.6386L245.969 31.037C245.83 31.9209 245.069 32.5722 244.174 32.5722H241.044Z" fill="black"/>
</svg>
